<?xml version="1.0" encoding="UTF-8" standalone="no"?>
<!-- Created with Inkscape (http://www.inkscape.org/) -->

<svg
   xmlns:osb="http://www.openswatchbook.org/uri/2009/osb"
   xmlns:dc="http://purl.org/dc/elements/1.1/"
   xmlns:cc="http://creativecommons.org/ns#"
   xmlns:rdf="http://www.w3.org/1999/02/22-rdf-syntax-ns#"
   xmlns:svg="http://www.w3.org/2000/svg"
   xmlns="http://www.w3.org/2000/svg"
   xmlns:xlink="http://www.w3.org/1999/xlink"
   xmlns:sodipodi="http://sodipodi.sourceforge.net/DTD/sodipodi-0.dtd"
   xmlns:inkscape="http://www.inkscape.org/namespaces/inkscape"
   width="500"
   height="500"
   id="svg2"
   version="1.1"
   inkscape:version="0.48.4 r9939"
   sodipodi:docname="gravatar.svg"
   inkscape:export-filename="/home/mattias/gnu+pony/info/gravatar.png"
   inkscape:export-xdpi="90"
   inkscape:export-ydpi="90">
  <defs
     id="defs4">
    <linearGradient
       id="linearGradient4431">
      <stop
         style="stop-color:#173dc1;stop-opacity:1;"
         offset="0"
         id="stop4433" />
      <stop
         style="stop-color:#052e78;stop-opacity:1;"
         offset="1"
         id="stop4435" />
    </linearGradient>
    <linearGradient
       osb:paint="solid"
       id="linearGradient3941">
      <stop
         id="stop3943"
         offset="0"
         style="stop-color:#000000;stop-opacity:1;" />
    </linearGradient>
    <linearGradient
       inkscape:collect="always"
       xlink:href="#linearGradient4431"
       id="linearGradient4437"
       x1="60.651207"
       y1="1.4706236"
       x2="499.16315"
       y2="369.73026"
       gradientUnits="userSpaceOnUse" />
  </defs>
  <sodipodi:namedview
     id="base"
     pagecolor="#ffffff"
     bordercolor="#666666"
     borderopacity="1.0"
     inkscape:pageopacity="0.0"
     inkscape:pageshadow="2"
     inkscape:zoom="0.7"
     inkscape:cx="108.54701"
     inkscape:cy="267.2911"
     inkscape:document-units="px"
     inkscape:current-layer="layer1"
     showgrid="false"
     inkscape:window-width="1792"
     inkscape:window-height="659"
     inkscape:window-x="1792"
     inkscape:window-y="12"
     inkscape:window-maximized="0" />
  <metadata
     id="metadata7">
    <rdf:RDF>
      <cc:Work
         rdf:about="">
        <dc:format>image/svg+xml</dc:format>
        <dc:type
           rdf:resource="http://purl.org/dc/dcmitype/StillImage" />
        <dc:title></dc:title>
      </cc:Work>
    </rdf:RDF>
  </metadata>
  <g
     inkscape:label="Layer 1"
     inkscape:groupmode="layer"
     id="layer1">
    <rect
       style="fill:url(#linearGradient4437);fill-opacity:1;stroke:none"
       id="rect3661"
       width="500"
       height="500"
       x="0"
       y="0" />
    <g
       id="g3912"
       transform="translate(-84.631085,-109.26782)">
      <path
         d="m 357.13367,299.60675 c 0,17.30171 -15.92931,31.32752 -35.5791,31.32752 -19.6498,0 -35.57911,-14.02581 -35.57911,-31.32752 0,-17.30171 15.92931,-31.32752 35.57911,-31.32752 19.64979,0 35.5791,14.02581 35.5791,31.32752 z"
         sodipodi:ry="31.327517"
         sodipodi:rx="35.579105"
         sodipodi:cy="299.60675"
         sodipodi:cx="321.55457"
         id="path3140"
         style="fill:#ffffff;fill-opacity:1;stroke:none"
         sodipodi:type="arc" />
      <path
         sodipodi:nodetypes="sscsscssssssss"
         inkscape:connector-curvature="0"
         id="path3931"
         d="m 323.53125,283.84375 c -6.89154,0 -12.46875,5.60846 -12.46875,12.5 0,1.14948 0.17821,2.25594 0.46875,3.3125 0.33548,-6.05324 7.2098,-10.92114 7,-4.75 -0.12044,3.54248 1.09082,7.4859 5.65625,8.25 5.15541,0.86285 -0.0358,5.43824 -5.65625,4.625 1.53277,0.67236 3.21766,1.03125 5,1.03125 6.89154,0 12.46875,-5.57721 12.46875,-12.46875 0,-6.89154 -5.57721,-12.5 -12.46875,-12.5 z m 2.0625,2.375 c 0.29155,-0.0237 0.59264,-0.0151 0.90625,0 1.15796,0.0558 2.55668,0.17204 3.84375,0.96875 8.00771,4.95681 1.85812,18.46912 -6.15625,11.34375 -5.72876,-5.09329 -2.96699,-11.9576 1.40625,-12.3125 z"
         style="fill:#000000;fill-opacity:1" />
    </g>
    <g
       id="g3916"
       transform="translate(-84.631085,-109.26782)">
      <path
         transform="translate(1.3426078,-0.89507187)"
         d="m 399.20205,289.08963 c 0,11.24611 -8.61585,20.36288 -19.24404,20.36288 -10.62819,0 -19.24405,-9.11677 -19.24405,-20.36288 0,-11.24611 8.61586,-20.36288 19.24405,-20.36288 10.62819,0 19.24404,9.11677 19.24404,20.36288 z"
         sodipodi:ry="20.362885"
         sodipodi:rx="19.244045"
         sodipodi:cy="289.08963"
         sodipodi:cx="379.95801"
         id="path3142"
         style="fill:#ffffff;fill-opacity:1;stroke:none"
         sodipodi:type="arc" />
      <path
         sodipodi:nodetypes="scssscsscssscss"
         inkscape:connector-curvature="0"
         id="path5398"
         d="m 377.4375,280.78125 c -0.26477,0 -0.52486,0.0233 -0.78125,0.0625 1.75206,0.40073 3.09375,2.85503 3.09375,5.84375 0,3.26815 -1.60444,5.90625 -3.59375,5.90625 -1.98931,0 -3.625,-2.6381 -3.625,-5.90625 0,-1.82835 0.51947,-3.44578 1.3125,-4.53125 C 372.13281,283.61267 371,286.07753 371,288.875 c 0,4.47595 2.88516,8.09375 6.4375,8.09375 1.43229,0 2.74251,-0.59836 3.8125,-1.59375 -0.70344,-0.2639 -1.25,-1.4136 -1.25,-2.78125 0,-1.56303 0.70994,-3.26732 1.5625,-3.26732 0.85256,0 1.53125,1.70429 1.53125,3.26732 0,0.0513 10e-4,0.10565 0,0.15625 0.49582,-1.14691 0.78125,-2.47627 0.78125,-3.875 0,-4.47595 -2.88516,-8.09375 -6.4375,-8.09375 z"
         style="fill:#000000;fill-opacity:1" />
    </g>
    <g
       id="g3016"
       transform="translate(-84.631085,-109.26782)">
      <path
         inkscape:connector-curvature="0"
         id="path5443"
         d="m 306.82447,227.80358 c -1.7487,-5.20984 -6.07354,-13.68035 -8.35158,-16.90465 -0.75059,-1.06238 -2.47232,-4.93993 -2.47232,-5.13576 0,-0.19584 3.00155,-1.89555 5.70316,-3.00358 6.70938,-2.75178 13.62856,-2.98115 17.56813,-0.37566 6.35577,4.20348 8.43575,5.34497 12.77695,1.53334 4.76273,-4.18173 10.5024,-6.69559 18.72252,-7.01675 10.49137,-0.4099 18.16493,0.29588 25.23726,4.91275 7.96795,5.20153 8.06539,6.42726 14.9446,7.38961 17.56007,2.45653 35.49367,-3.79617 44.54199,-17.12041 5.63195,-8.29342 7.70619,-10.85498 7.7406,-19.45006 0.0271,-6.75856 -0.79737,-8.11283 -2.29128,-10.51552 -3.92672,-6.31543 -7.70909,-9.35276 -18.89653,-10.43793 l -8.43685,-0.81836 3.53248,-3.13057 c 5.43386,-4.81561 17.765,-7.23791 25.87322,-3.24625 14.04085,6.91229 25.50391,33.04572 21.17383,48.19822 -2.87737,10.06896 -11.03781,21.228 -23.20466,28.86144 l -6.92198,4.34283 -18.73283,-4.31557 c -9.9105,-2.28313 -20.3922,-4.95547 -23.19387,-5.3508 -12.04831,-1.70006 -22.71838,-0.78436 -34.45877,4.00215 -3.86021,1.57379 -9.39529,3.1692 -11.22813,3.09679 l -4.00546,-0.15823 -0.8279,-5.61602 c -0.4397,-2.98271 0.44169,-4.98312 0.25289,-4.98312 -0.1888,0 -0.28174,1.7082 -1.94706,3.40922 -1.86287,1.90281 -6.02241,3.99136 -10.05188,5.93436 -7.07386,3.41099 -9.01948,4.73563 -10.33679,7.91592 -0.88132,2.12768 -4.07112,3.81751 -7.8448,3.83406 -4.24502,-0.91242 -4.08124,0.17113 -4.86494,-5.85145 z"
         style="fill:#64513f;fill-opacity:1"
         sodipodi:nodetypes="csssssssssssscsssscsssscssssscc" />
      <path
         sodipodi:nodetypes="cscccccccccccccccccccc"
         inkscape:connector-curvature="0"
         d="m 292.53804,203.49247 c 0,0 15.35871,-11.98646 28.74441,-1.09156 5.48922,4.46779 10.94631,0.46639 11.27945,0 9.10264,-10.54229 37.7764,-10.28441 49.8479,2.18312 17.48838,10.94447 58.45451,-5.58598 59.30809,-34.56607 -0.23024,-16.54595 -18.53858,-16.50325 -31.65523,-17.82881 8.23176,-14.11572 27.62658,-12.20724 36.02147,-7.27706 18.21495,12.00716 24.74407,31.29138 18.92037,48.75634 -3.33572,10.55095 -12.71393,25.89061 -27.15255,33.15612 l -5.18166,-1.38924 c 19.53877,-10.69839 36.43405,-28.22405 30.77836,-50.01314 -3.20697,-14.0125 -12.47956,-30.05137 -28.03125,-31.84375 -1.95211,-0.29616 -3.93441,-0.37105 -5.90625,-0.28125 -5.92188,0.27772 -11.95501,2.48844 -15.84375,7.21875 10.46995,0.91023 24.81783,1.81197 29.0625,13.375 2.97323,12.03859 -0.59405,20.84165 -7.89949,30.31011 -10.95644,13.45186 -31.12847,19.09841 -48.58041,14.33022 -6.76847,-2.38029 -11.22242,-8.84388 -18.65625,-9.96875 -11.8339,-3.10408 -26.26782,-2.73833 -35.21875,6.4375 -5.19197,3.33011 -11.15669,0.52609 -15.28125,-3.03125 -5.77099,-3.28862 -15.90691,1.54015 -21.69208,4.40864 z"
         style="fill:#000000;fill-opacity:1;stroke:#000000;stroke-width:1px;stroke-linecap:butt;stroke-linejoin:miter;stroke-opacity:1"
         id="path3912" />
    </g>
    <g
       id="g3020"
       transform="translate(-84.631085,90.73218)">
      <path
         inkscape:connector-curvature="0"
         id="path5445"
         d="m 244.79684,63.766336 c -13.45377,-3.59092 -24.33069,-12.672878 -26.71727,-22.939598 -4.21925,-18.1506 0.36242,-47.049474 11.89993,-66.691384 4.13007,-7.0312 11.95593,-15.750804 16.53266,-18.075154 4.03894,-2.05122 11.0502,-3.367115 14.4275,-1.853202 l 5.76232,2.58302 -6.2592,2.868418 c -7.79691,3.573106 -22.58221,29.045055 -16.90939,57.144678 0.93894,4.650942 2.74427,8.562526 5.77042,9.932476 l 4.28043,1.93777 -1.31126,11.957566 c -0.98952,9.02357 0.80721,12.144428 1.85795,16.338374 l 1.93849,7.737318 -3.85887,-0.60732 c -2.08468,-0.689347 -3.30443,1.253571 -7.41371,-0.332962 z"
         style="fill:#64513f;fill-opacity:1"
         sodipodi:nodetypes="csssscssscssccc" />
      <path
         sodipodi:nodetypes="ccccccccccccc"
         inkscape:connector-curvature="0"
         d="M 254.33599,29.02349 C 244.47812,27.8581 240.9163,14.66673 240.96875,6.4375 c 0.49442,-16.7977 5.071,-35.36698 18.28125,-46.625 2.01063,-1.5493 4.39673,-2.67116 6.78125,-3.375 -3.24331,-2.01252 -7.03477,-3.27281 -10.90625,-3.03125 -13.29147,1.66458 -21.29962,14.48593 -27.1875,25.34375 -8.59073,17.99155 -13.50019,38.78534 -9.90625,58.5625 2.4751,15.54427 21.61661,27.09014 39.21118,26.65287 l 1.21825,4.10127 c -27.03701,4.73815 -58.02627,-18.17046 -36.51018,-80.94757 7.15578,-18.42973 26.31872,-49.39364 49.48405,-29.10826 -26.84971,-2.48844 -39.37564,68.63235 -15.64569,65.67552 z"
         style="fill:#000000;fill-opacity:1;stroke:#000000;stroke-width:1px;stroke-linecap:butt;stroke-linejoin:miter;stroke-opacity:1"
         id="path3919" />
    </g>
    <g
       id="g3032"
       transform="translate(-84.631085,-209.26782)">
      <path
         sodipodi:nodetypes="cssssscsccsssssssssscc"
         inkscape:connector-curvature="0"
         id="path5449"
         d="m 224.03122,569.15115 c -3.09206,-7.9484 -1.833,-23.10769 0.5012,-34.15935 2.34824,-11.11813 4.31516,-16.14582 9.99962,-23.1738 5.3244,-6.58282 12.33756,-11.07093 22.66964,-17.54749 13.59587,-8.52243 15.42028,-11.34837 18.40587,-29.16674 0.80475,-4.80286 0.4236,-9.91761 1.30117,-10.58195 l 1.29248,-3.75149 8.19265,6.76205 c 14.98177,12.36562 35.0556,18.33084 53.26477,18.34683 l 7.97503,0.72959 0.4531,4.2659 c 0.62798,5.91241 2.79134,8.27351 8.1851,21.72453 5.57888,13.91265 8.0138,22.24587 7.93001,25.80603 -0.0386,1.64064 -3.48519,2.9942 -7.14125,6.01043 -2.54698,2.10125 -4.4816,4.15611 -5.38068,3.26104 -0.16143,-0.16071 -0.64181,-2.33049 -0.64656,-4.63186 -0.0313,-15.18081 -9.90941,-29.62799 -24.45567,-34.46867 -5.87167,-1.95397 -14.07644,-2.01951 -20.82482,-0.29735 -13.44497,3.4311 -28.51093,14.44359 -37.3257,27.50352 -6.78523,10.05297 -13.50023,23.56561 -15.18634,35.22728 -0.70031,4.84364 -0.31388,8.21024 -1.19138,8.1263 -16.05818,0.0189 -14.49038,0.0139 -28.01824,0.0152 z"
         style="fill:#5ca9e0;fill-opacity:1" />
      <path
         sodipodi:nodetypes="csccccscc"
         inkscape:connector-curvature="0"
         d="m 273.74925,442.77532 c 1.51155,27.91533 -3.48439,41.31641 -20.06809,50.42749 -25.36058,13.9331 -31.38854,31.38855 -31.38854,31.38855 -4.16239,17.02655 -3.77845,32.85145 -7.97578,44.2527 l 9.14048,-0.15072 c -3.07974,-11.40125 -0.23314,-26.34772 3.92925,-43.37427 0,0 6.02796,-17.45545 31.38854,-31.38855 16.5837,-9.11108 15.03028,-18.14592 19.70423,-46.06125 z"
         style="fill:#000000;fill-opacity:1;stroke:#000000;stroke-width:1px;stroke-linecap:butt;stroke-linejoin:miter;stroke-opacity:1"
         id="path5410" />
      <path
         sodipodi:nodetypes="ccccc"
         inkscape:connector-curvature="0"
         id="path5427"
         d="m 368.58338,526.53453 c -13.56296,-34.56606 -18.17795,-25.83358 -15.64569,-51.30331 l -6.18551,0 c 4.2703,23.391 16.58878,36.92902 17.10111,55.3057 z"
         style="fill:#000000;fill-opacity:1;stroke:#000000;stroke-width:1px;stroke-linecap:butt;stroke-linejoin:miter;stroke-opacity:1" />
    </g>
    <g
       id="g3084"
       transform="translate(-84.631085,-109.26782)">
      <g
         id="g3050">
        <path
           style="fill:#000000;fill-opacity:1;stroke:#000000;stroke-width:1.15660977px;stroke-linecap:butt;stroke-linejoin:miter;stroke-opacity:1"
           d="m 288.11006,272.11133 c 19.96259,-20.54766 5.13646,-48.47176 -9.41277,-73.54266 15.78199,66.00132 14.69431,50.26363 9.41277,73.54266 z"
           id="path3780"
           inkscape:connector-curvature="0"
           sodipodi:nodetypes="ccc" />
        <path
           style="fill:#000000;fill-opacity:1;stroke:#000000;stroke-width:1px;stroke-linecap:butt;stroke-linejoin:miter;stroke-opacity:1"
           d="m 346.35697,274.15911 c -30.18686,-1.40407 -44.99426,10.20842 -52.26872,14.61757 0.9066,-25.66431 30.39378,-27.45411 52.26872,-14.61757 z"
           id="path3808"
           inkscape:connector-curvature="0"
           sodipodi:nodetypes="ccc" />
        <path
           style="fill:#000000;fill-opacity:1;stroke:#000000;stroke-width:1.37075627px;stroke-linecap:butt;stroke-linejoin:miter;stroke-opacity:1"
           d="m 371.53018,328.67305 c 0.44848,-7.08959 -9.51804,-2.99425 -9.58236,-0.7788 -0.11161,3.84409 9.29068,5.38983 9.58236,0.7788 z"
           id="path5406"
           inkscape:connector-curvature="0"
           sodipodi:nodetypes="sss" />
        <path
           sodipodi:nodetypes="cssssscsssscsssscsscssscssssscsssssssscsssssssscssssscssssssssssssssssccssssssscccsscccsssssssssscssssssscsssssssss"
           style="fill:#5ca9e0;fill-opacity:1"
           d="m 334.38844,374.06474 c -20.48927,-2.33112 -40.32424,-11.79984 -53.88404,-25.33876 -17.83519,-17.80771 -24.76607,-41.50016 -18.21899,-65.90946 2.02676,-7.55634 2.39806,-6.46911 -0.7233,-11.91201 -3.7342,-6.51154 -6.69598,-14.64648 -6.95213,-22.82818 -0.47601,-15.20381 4.29561,-35.72081 16.84906,-54.74073 l 4.09623,-6.20627 7.90505,7.48731 c 15.46265,14.64553 23.43327,34.73732 26.18541,53.21455 0.58179,3.90599 -0.19113,4.72208 0.63251,4.72208 0.9601,0 -0.35182,-0.61559 -0.006,-7.51325 l -0.80161,-8.30437 3.27891,-0.92302 c 1.09189,-0.30737 3.34772,-0.61943 4.10868,-0.82853 1.07282,-0.2948 2.2258,0.3737 1.8559,1.33762 -1.19965,3.12625 -1.72327,4.85824 -0.36256,10.55378 0.80049,3.35063 0.80596,3.62297 0.97911,3.79612 0.17315,0.17314 0.0428,-0.65494 0.67729,-2.51705 0.63449,-1.86211 2.21054,-3.82963 3.92817,-4.7772 l 2.53722,-3.84407 7.50444,7.85363 c 4.36806,4.5713 5.30873,5.74907 6.04952,8.51884 0.50519,1.88881 -0.17406,2.8804 0.32778,2.8804 0.87048,0 2.5184,-9.52554 2.51961,-11.92631 3.1e-4,-0.62777 2.03856,5.01644 3.17568,7.41788 2.77898,5.86875 7.91929,13.2451 8.76686,12.72128 0.37451,-0.23146 0.68092,-2.40467 0.68092,-4.05581 0,-1.65113 0.77638,-3.18267 1.4352,-5.53069 0.95014,-3.38628 1.51833,-4.25195 2.44416,-3.88266 2.1813,0.87008 10.57836,3.45922 10.85402,3.18355 0.54902,-0.54901 -10.86877,-14.4601 -13.53092,-16.74965 -1.52193,-1.30892 -2.58348,-3.07106 -1.99456,-3.07708 1.43736,-0.0147 12.98676,-3.59423 12.71979,-4.20321 -0.47468,-1.08282 -2.7865,-1.15394 -4.64509,-1.43265 -4.00903,-0.60119 -8.02524,-4.15033 -7.67151,-5.22707 0.4666,-1.42036 10.49443,-5.43973 16.12277,-6.5899 10.89524,-2.22648 26.16864,-0.38885 47.76565,4.11099 6.03897,1.25825 14.45581,2.4781 17.5034,3.64605 l 8.26397,1.59566 -6.06821,4.04018 c -5.19955,3.46184 -10.35292,8.12836 -18.12559,17.93358 -8.49599,10.71769 -13.13649,14.82895 -16.83796,14.82895 -3.20757,0 -7.04579,-4.58894 -9.05493,-8.51593 -1.96164,-3.83413 -5.92886,-9.48714 -7.12785,-9.48714 -1.55591,0 0.007,0.0219 2.51613,3.13488 2.95683,3.66878 7.17948,13.31863 8.5598,18.71237 3.45253,13.49107 3.3441,30.62389 -5.88671,39.50154 l -2.83777,5.07841 -7.10131,-3.35991 c -2.62077,-1.24 -4.82679,-3.63913 -4.82679,-3.85952 0,-0.22039 3.35419,-1.52893 5.39898,-2.25518 3.90809,-1.38803 8.82272,-5.525 10.43663,-8.66948 0.52421,-1.02136 2.41752,-3.74687 2.5344,-6.40571 l 0.18274,-4.15712 c 0.0188,-0.34721 -4.10431,-2.93163 -4.81386,-3.50238 -3.27232,-2.63218 -6.99823,-2.28005 -13.29676,-2.76576 -3.14082,-0.2422 -5.26305,0.11301 -5.26305,-0.16785 0,-0.28087 1.73616,-4.11983 2.90092,-5.72772 2.62581,-3.62483 7.38459,-6.02741 11.93844,-6.02741 3.67704,0 4.9524,-0.28802 1.95431,-1.23958 -7.51879,-2.38637 -14.47544,2.64806 -19.38078,12.63606 -1.75017,3.56362 -2.42407,4.41039 -2.42407,10.85405 0,6.57917 0.70863,7.47114 2.64266,11.41025 3.16112,6.43839 7.26324,9.89394 17.49366,15.19186 4.88829,2.53145 9.78287,5.36814 9.78287,5.68839 0,0.32026 0.0805,1.56195 -2.85442,1.85804 -3.15597,0.31839 -1.86401,2.099 1.44555,4.05169 3.8586,2.27663 4.2135,6.82042 2.09979,9.49371 -3.30415,4.17885 -13.69709,9.09032 -23.17365,10.888 -15.28526,2.89956 -26.25365,0.10694 -37.28723,-10.62665 -3.17979,-3.09334 -3.69735,-4.35181 -3.81671,-4.23245 -0.11936,0.11937 0.65242,1.78847 1.03143,5.76032 1.19552,12.52996 5.09125,18.55079 11.17978,22.82997 5.13111,3.60627 11.519,4.61675 17.70369,2.89857 6.61345,-1.83729 11.9643,-5.91409 13.50586,-12.03615 0.54175,-2.15149 0.67828,-4.08303 1.77954,-4.37848 2.45161,-0.65771 7.90547,-2.54624 7.18764,-1.18088 -0.36824,0.70041 -2.58663,5.16706 -2.87855,7.32768 -0.45158,3.34227 -0.43911,5.61374 -3.10638,8.20602 -4.10327,3.98792 -12.85482,8.62177 -19.93402,10.43316 -8.15355,0.31855 -17.39054,3.13126 -26.55482,1.11581 z m 35.2852,-43.60904 c 1.88105,-1.00671 1.82667,-4.06514 -0.0905,-5.09119 -1.75261,-0.93797 -5.34031,-0.31186 -6.8471,1.19493 -2.73567,2.73566 3.04259,5.98081 6.93762,3.89626 l 0,0 z m -37.39677,-19.79791 c 3.80947,-1.63207 6.51163,-4.85254 9.07537,-7.65768 4.07174,-4.45513 3.68077,-3.00145 1.38347,-5.08048 -0.84196,-0.76196 -2.58064,-3.56289 -3.57365,-5.25733 -3.49104,-5.95703 -6.13849,-6.88421 -14.36518,-6.99471 -4.46842,-0.06 -12.85792,1.44873 -17.16618,3.65204 -6.24385,3.19319 -12.91093,10.64783 -12.91093,14.9685 0,0.91437 1.1482,1.21097 4.72208,3.24518 9.00144,5.1235 11.39597,6.02063 21.10842,5.69109 6.05787,-0.20554 3.57506,0.92571 11.7266,-2.56661 z m -35.70243,-24.72737 c 2.24307,-4.33764 8.81329,-10.46299 13.58929,-12.66917 4.24708,-1.96186 5.06989,-2.0843 13.61656,-2.02621 7.5294,0.0512 10.13409,0.37813 15.12072,1.89803 3.41995,1.04238 6.2042,1.54527 6.44031,1.16324 0.53378,-0.86368 0.66018,-0.77876 -4.45993,-2.99666 -12.225,-5.29557 -27.08073,-5.79604 -36.01738,-1.21337 -3.99874,2.05054 -7.85251,6.40632 -9.45324,10.68467 -2.41035,6.44223 -1.5264,10.36148 1.16367,5.15947 z m -2.30792,-22.43582 c 5.48335,-12.21853 4.13332,-21.66664 -6.39382,-44.74674 -2.54811,-5.58657 -5.03328,-11.38541 -5.5226,-12.88631 -0.87529,-2.68482 -3.46289,-4.09043 -2.67927,-1.45541 0.20829,0.70042 1.22978,4.7119 2.26998,8.9144 1.0402,4.20251 3.83905,14.70846 6.21968,23.34656 4.61762,16.75499 4.89607,18.9623 3.25141,25.77364 -1.3157,5.44895 -1.31589,5.4578 -0.11393,5.4578 0.5457,0 1.88155,-1.98178 2.96855,-4.40394 z"
           id="path5439"
           inkscape:connector-curvature="0" />
      </g>
      <g
         id="g3072">
        <g
           id="g3068">
          <path
             sodipodi:nodetypes="csscssccsccc"
             inkscape:connector-curvature="0"
             id="path5437"
             d="m 355.60932,364.94274 c -6.98018,-0.58819 -12.57078,-4.48452 -15.7246,-10.95913 -1.10179,-2.26191 -3.97398,-6.95722 -4.46644,-9.62201 -0.27001,-1.4611 -0.27327,-3.22486 -0.007,-3.73994 0.0831,-0.16065 2.13114,-2.18363 2.38416,-2.18363 0.44901,0 5.98462,3.80992 7.10249,4.42025 10.79412,5.89331 13.09512,7.33117 23.63854,6.93076 0.70753,-0.0886 6.53802,-0.12455 6.86487,-0.17669 0.81588,-0.13014 2.37499,-0.78875 2.32844,-0.54081 -0.11473,0.61108 0.83958,2.57814 0.48013,3.3179 -1.70988,3.51913 -5.33994,9.02264 -9.98775,10.88674 -3.23356,0.52846 -5.80927,1.52711 -12.61284,1.66656 z"
             style="fill:#b90245;fill-opacity:1" />
          <path
             inkscape:connector-curvature="0"
             id="path3010"
             d="m 275.28125,181.71875 c -38.15986,54.56021 -19.36043,75.04853 -16.46875,93.90625 -22.48186,84.07562 83.20869,124.86048 124.03125,87.21875 4.35619,-4.78876 2.18761,-13.44993 7,-17.4375 13.44483,-5.2016 13.90408,-12.86725 11.5,-19.125 6.15239,-10.25445 -15.16916,-12.34591 -22.75,-18.53125 -0.40354,-0.31977 -0.78078,-0.69084 -1.15625,-1.09375 15.71322,-4.18831 17.32277,-10.84486 19.8125,-21.5 -6.53802,-5.13125 -13.42005,-6.81452 -24.125,-6.0625 2.43826,-7.48984 8.21403,-13.18841 18.75,-12.28125 -13.68448,-8.11576 -37.05946,21.8059 -14.375,42.9375 9.04338,6.06677 28.72408,12.77342 17.28125,13.625 -2.57383,0.41262 -3.4785,2.50829 2.1875,4.375 11.4935,10.36479 -13.15308,19.40835 -24.75,20.5625 -12.22692,2.11231 -25.82075,-0.76207 -37.84375,-16.03125 0.34114,16.77147 4.10987,31.15893 20.5625,33.5 14.51779,2.73136 24.79439,-9.12353 24.75,-17.46875 3.64351,-0.75712 6.74132,-1.63009 9.375,-2.59375 l -1.09375,0.65625 c -7.31622,4.92083 -0.36212,10.03953 -8.46875,16.46875 -36.49888,32.05824 -142.58477,-5.97484 -114.5,-87.46875 -6.79632,-10.39971 -24.00477,-37.02811 10.8125,-88 17.75564,17.39944 31.71935,37.56193 34.46875,65.875 1.54676,-20.83924 -6.45379,-43.8527 -35,-71.53125 z m 98.65625,99.71875 c 8.68482,-0.16105 24.60196,0.57128 21,8.84375 -2.30849,6.46778 -8.44393,17.34569 -19.78125,13.125 -3.07687,-5.65825 -4.38241,-14.4005 -2.6875,-21.9375 0.50145,-0.0165 0.8972,-0.0206 1.46875,-0.0312 z M 337.625,339.875 c 0.37775,-0.0411 0.88705,0.10931 1.59375,0.5 10.04381,7.89576 21.65244,12.08236 38.46875,9.09375 -1.48486,14.84393 -35.76156,24.53385 -40.9375,-5.75 -0.11825,-1.91242 -0.25825,-3.72045 0.875,-3.84375 z"
             style="fill:#000000;fill-opacity:1;stroke:#000000;stroke-width:1px;stroke-linecap:butt;stroke-linejoin:miter;stroke-opacity:1" />
        </g>
        <path
           style="fill:#000000;fill-opacity:1;stroke:#000000;stroke-width:1px;stroke-linecap:butt;stroke-linejoin:miter;stroke-opacity:1"
           d="m 389.32302,313.74001 c 15.9651,-19.78856 13.77568,-48.20478 -2.45869,-66.59586 16.76639,15.08156 19.62269,44.17195 7.18878,69.50669 z"
           id="path3806"
           inkscape:connector-curvature="0"
           sodipodi:nodetypes="cccc" />
        <path
           style="fill:#000000;fill-opacity:1;stroke:#000000;stroke-width:1px;stroke-linecap:butt;stroke-linejoin:miter;stroke-opacity:1"
           d="m 396.60008,260.61743 c 16.80474,16.28886 21.8138,-20.47242 48.75634,-32.38294 -8.92547,1.96026 -66.64266,-21.30555 -90.59947,-1.09156 l -6.1855,-3.27468 c 40.57411,-21.52203 61.55983,2.26601 103.69818,3.63853 -42.02592,15.24156 -29.15726,42.91378 -52.75872,40.75157 z"
           id="path3810"
           inkscape:connector-curvature="0"
           sodipodi:nodetypes="ccccccc" />
        <g
           id="g3040"
           transform="translate(0,100)">
          <path
             sodipodi:nodetypes="sssscsscssssssssssccsssssccscs"
             inkscape:connector-curvature="0"
             id="path5441"
             d="m 350.56589,158.44215 c -0.99486,-1.17625 -3.50665,-6.08482 -5.42765,-10.88768 -1.92101,-4.80286 -2.20714,-7.39652 -2.5214,-7.74593 -0.58703,-0.65268 1.24377,2.08748 -1.68499,6.70133 l -0.51695,5.97196 -7.07953,-6.87145 c -3.63381,-3.527 -4.5393,-5.03016 -5.48967,-8.29932 -0.62676,-2.15598 -1.02055,-2.71573 -1.45525,-2.9844 -1.02895,-0.63592 -0.30461,1.15862 -1.19793,4.47613 -0.72893,2.70706 -5.15832,7.32115 -6.01515,6.46432 -0.26443,-0.26443 -1.02603,-5.57698 0.24145,-8.03457 2.60869,-5.05815 2.82802,-5.0073 1.29206,-5.0073 -3.59553,0 1.40897,-6.18309 9.69897,-10.19277 3.8101,-1.84286 10.80403,-5.74426 10.80403,-5.38216 0,0.36209 0.6002,4.50433 -0.21333,5.82066 -0.84091,1.36062 -1.32057,1.91191 -1.02452,2.26719 0.85528,1.02636 2.22263,-0.2899 5.15707,-0.39336 5.31775,-0.1875 5.27213,1.0891 10.07873,4.53431 2.65238,1.90113 6.93352,3.79607 7.48305,3.8242 0.54953,0.0281 -1.07984,1.83575 -1.88031,2.17973 -0.80048,0.34397 -5.57007,0.64843 -8.4718,0.67656 -6.57598,0.0637 -5.50103,-0.46863 -0.0314,3.04552 5.2846,3.39525 10.0641,7.87491 11.85357,10.90784 0.82748,1.40247 1.85022,4.36956 1.5959,4.36956 -0.25431,0 -4.66349,-1.53807 -6.75228,-2.71691 -2.08878,-1.17884 -2.96972,-1.84404 -3.21467,-1.59909 -0.24495,0.24494 -0.0552,1.30784 -0.0859,2.94214 -0.0308,1.63431 -0.0985,4.67648 -0.98876,5.96521 l -1.20972,3.44865 z"
             style="fill:#b75d24;fill-opacity:1" />
          <path
             inkscape:connector-curvature="0"
             id="path3812"
             d="M 342.03125,111.875 C 336.22602,123.1279 319.98246,120.14321 318,132.40625 l -9.53125,1.03125 0,3.34375 10.8125,-2.0625 c -5.15016,7.34836 -0.57659,11.44597 -0.25,16.96875 3.22404,-11.02975 5.73625,-4.55003 7.46875,-13.875 0.91615,10.39656 11.77863,7.00607 13.875,21.875 1.28221,-4.2107 2.64475,-8.31028 2.59375,-15.1875 2.97303,13.76475 8.37011,16.55049 12.59375,24.6875 -1.28148,-7.67408 2.96487,-12.21528 2.3125,-16.21875 4.01906,2.51049 9.01239,3.11412 13.65625,4.375 -5.93814,-6.7781 -7.71991,-15.11185 -18.53125,-20.0625 7.263,0.83982 12.23898,-3.17184 15.6875,-4.875 -15.72166,-1.31584 -14.62551,-12.80796 -27.0625,-8.65625 3.23018,-1.25813 -0.90318,-7.93463 0.40625,-11.875 z m -2,5.75 c 0.6472,0.21994 0.75905,2.74697 0.84375,3.90625 -3.75282,3.58238 -4.42305,5.27168 1.84375,3.96875 7.19597,-3.13676 11.71663,5.06989 17.84375,7.09375 4.65889,0.90499 -1.86711,2.43876 -3.8125,2.71875 -2.43018,0.47295 -12.17852,-1.05524 -7.9375,1.53125 7.15788,3.71373 13.47992,8.89594 17.125,16.3125 0.55214,1.76016 -5.29054,-0.75654 -7.25,-2.03125 -5.24817,-4.57584 -2.10214,1.16259 -2.96875,4.4375 -0.88589,1.78117 -1.39499,6.359 -2.40625,6.375 -5.89133,-6.45825 -7.11247,-15.21539 -10.875,-22.75 -1.8442,4.19595 -1.28239,8.73927 -2.15625,13.125 -2.03849,-5.8349 -9.59537,-7.19295 -11.5,-12.9375 -0.7308,-4.98414 -2.15614,-9.72059 -4.21875,-2 0.0725,3.34155 -2.53179,5.13801 -4.59375,7.25 -1.15712,0.76008 -1.40119,-3.86151 -0.78125,-5.40625 0.63276,-3.1719 7.46749,-9.05467 0.8125,-6.6875 2.08471,-9.41189 14.15951,-8.79625 20.03125,-14.90625 z"
             style="fill:#000000;fill-opacity:1;stroke:#000000;stroke-width:1px;stroke-linecap:butt;stroke-linejoin:miter;stroke-opacity:1" />
        </g>
        <path
           style="fill:#000000;fill-opacity:1;stroke:#000000;stroke-width:1px;stroke-linecap:butt;stroke-linejoin:miter;stroke-opacity:1"
           d="m 324.3125,284.625 c -13.51607,0.47733 -27.49761,7.30505 -30.5,19.8125 7.0324,4.62821 12.5334,8.96727 24.96875,9.25 13.13616,0.56427 23.222,-8.43094 26.25,-14.65625 -6.4635,-5.08954 -5.0127,-13.43014 -18.03125,-14.40625 -0.89358,-0.0247 -1.78643,-0.0318 -2.6875,0 z m 2.84375,2.375 c 7.04292,-0.47426 11.07966,5.68498 14.125,11.0625 2.90702,1.73347 0.0806,3.91361 -1.4375,5.59375 -11.43939,12.15441 -31.14563,10.19487 -43.34375,0.3125 3.95927,-11.50324 17.05355,-16.56748 28.28125,-16.9375 0.79156,-0.0203 1.58299,-0.0473 2.375,-0.0312 z"
           id="path3854"
           inkscape:connector-curvature="0" />
        <path
           sodipodi:type="arc"
           style="fill:none"
           id="path3939"
           sodipodi:cx="376.91977"
           sodipodi:cy="289.38907"
           sodipodi:rx="7.2039275"
           sodipodi:ry="9.3908339"
           d="m 384.1237,289.38907 c 0,5.18641 -3.22531,9.39083 -7.20393,9.39083 -3.97862,0 -7.20393,-4.20442 -7.20393,-9.39083 0,-5.18642 3.22531,-9.39084 7.20393,-9.39084 3.97862,0 7.20393,4.20442 7.20393,9.39084 z" />
      </g>
    </g>
    <text
       xml:space="preserve"
       style="font-size:40px;font-style:normal;font-weight:normal;line-height:125%;letter-spacing:0px;word-spacing:0px;fill:#000000;fill-opacity:1;stroke:none;font-family:Sans"
       x="932.85553"
       y="13.009928"
       id="text3817"
       sodipodi:linespacing="125%"><tspan
         sodipodi:role="line"
         id="tspan3819"
         x="932.85553"
         y="13.009928" /></text>
    <flowRoot
       xml:space="preserve"
       id="flowRoot3639"
       style="font-size:40px;font-style:normal;font-weight:normal;line-height:125%;letter-spacing:0px;word-spacing:0px;fill:#2e7ed9;fill-opacity:1;stroke:none;font-family:Sans"
       transform="translate(85.14286,503.14285)"><flowRegion
         id="flowRegion3641"><rect
           id="rect3643"
           width="652.85712"
           height="214.28569"
           x="-42.857143"
           y="-185.71428"
           style="fill:#2e7ed9;fill-opacity:1" /></flowRegion><flowPara
         id="flowPara3645"
         style="font-size:100px;font-style:normal;font-variant:normal;font-weight:500;font-stretch:normal;fill:#2e7ed9;fill-opacity:1;font-family:Celestia Redux Alternate;-inkscape-font-specification:Celestia Redux Alternate Medium">GNU<flowSpan
   style="fill:#cf7ed9;fill-opacity:1"
   id="flowSpan4443">/Pony</flowSpan></flowPara></flowRoot>    <g
       id="g3922"
       transform="translate(-84.631085,-109.26782)">
      <path
         sodipodi:nodetypes="ccsscscsssccsscsssscssccssscccc"
         inkscape:connector-curvature="0"
         id="path5505"
         d="m 351.60942,385.88384 c -0.18395,-0.56569 -1.03409,-1.28722 -1.11563,-1.7001 -0.18193,-0.92115 -0.48138,-1.89139 -0.85075,-2.6154 -1.10243,-2.16095 -1.73921,-1.57555 -2.63902,0.53086 -0.20806,0.48707 -0.87505,2.1272 -0.88075,2.69232 -0.55419,0.27864 -1.24548,-0.28729 -1.79986,-0.82697 -1.84833,-1.79932 -2.23386,-2.04145 -3.75243,-1.94894 -1.01136,0.0616 -1.6447,-0.20418 -2.3947,0.5352 -0.31105,0.30665 -1.01422,0.39932 -1.5538,0.39932 -0.2513,0 -1.17984,-0.60813 -1.94054,-1.84601 -0.43679,-0.71077 -0.51537,-1.16378 -0.65812,-1.29676 -0.47996,-0.44715 -0.67391,-0.72046 -0.87396,-0.0902 0.24916,0.52843 -0.68843,0.42243 -1.1523,-0.002 -0.71457,-0.65318 -3.01227,-2.07514 -4.7168,-2.83762 -0.91186,-0.40789 -1.5105,-1.60323 -1.22305,-1.56012 0.24763,0.0371 3.54722,1.04333 5.77594,1.1242 9.68183,0.35134 21.05844,-0.28619 28.95493,-1.62258 2.23095,-0.37756 2.80257,-1.60868 3.04764,-0.72619 0.25369,0.9135 0.44808,6.72911 0.15697,6.72911 -0.50759,0 -3.32075,-2.06188 -4.3792,-3.99378 -0.12052,-0.21999 -0.0293,-1.42846 -0.0874,-1.42846 -0.14207,0 -1.10818,3.17938 -1.52268,4.12081 -0.36786,0.83552 -0.53791,2.20224 -0.65927,3.10298 l -0.71231,1.06378 -1.34298,-0.5496 c -0.89924,-0.368 -0.72275,-0.39903 -1.4254,0.30362 -0.6225,0.62249 -0.10997,1.36679 -0.99888,2.69092 l -0.84209,1.25438 -0.41357,-1.50321 -0.63291,0.47468 z"
         style="fill:#b75d24;fill-opacity:1" />
      <path
         sodipodi:nodetypes="ccccccccccccccccccccccccccc"
         inkscape:connector-curvature="0"
         id="path5495"
         d="m 364.96511,372.8656 c -14.83666,3.61371 -29.69459,2.72092 -44.53125,1.3125 4.77165,2.75278 3.42874,4.5617 4.125,6.6875 -0.53552,-2.53428 2.17544,-2.18162 4.625,-2.0625 2.06716,2.16599 3.1759,4.58599 2.84375,7.4375 1.25815,-0.46649 2.08285,-1.50592 2.3125,-3.34375 l 2.84375,4.125 c -0.11146,-2.114 0.44532,-3.87532 3.0625,-4.625 4.0694,1.84528 4.5192,4.89602 5.65625,7.71875 2.39045,-1.24515 2.27435,-4.31569 2.34375,-7.21875 1.16186,5.69576 3.83622,8.68895 6.6875,11.34375 -0.10388,-3.19394 -1.41653,-6.6414 0,-9.53125 1.2305,1.34233 2.70946,2.43646 4.625,3.09375 0.18492,-2.77785 -1.57184,-5.47089 0,-8.5 1.99258,3.10288 4.31563,1.86796 7.46875,4.125 -1.91644,-3.5162 -0.7934,-7.0463 -2.0625,-10.5625 z m -2.37712,1.0813 c 2.35095,-0.0332 1.46001,4.00966 1.37712,6.6062 -1.68768,0.64198 -3.5746,-2.6701 -4.4375,-4.1875 -1.64643,2.47279 -3.03311,5.36459 -2.375,8.40625 -1.93445,-3.28398 -3.83223,-2.23759 -4.5,1.625 0.0502,4.02933 -1.1752,1.15497 -1.875,-1.15625 -1.26419,-7.52373 -4.70421,-6.65137 -4.46875,0.625 -1.0915,-1.21189 -4.99743,-6.52632 -8.1875,-3.75 -2.67541,4.15714 -4.74256,-7.52576 -5.21875,-0.90625 -1.07509,-3.26379 -6.34257,-4.02636 -8.63745,-5.74212 13.42231,1.07977 28.31823,0.40745 38.32283,-1.52033 z"
         style="fill:#000000;fill-opacity:1;stroke:#000000;stroke-width:1px;stroke-linecap:butt;stroke-linejoin:miter;stroke-opacity:1" />
    </g>
    <flowRoot
       xml:space="preserve"
       id="flowRoot3653"
       style="font-size:40px;font-style:normal;font-weight:normal;line-height:125%;letter-spacing:0px;word-spacing:0px;fill:#000000;fill-opacity:1;stroke:none;font-family:Sans"
       transform="matrix(1.0509631,0,0,1.0509631,-4.537779,-8.777181)"><flowRegion
         id="flowRegion3655"><rect
           id="rect3657"
           width="492.85715"
           height="54.285713"
           x="12.857142"
           y="427.14285" /></flowRegion><flowPara
         id="flowPara3659"
         style="font-size:20px;font-style:normal;font-variant:normal;font-weight:500;font-stretch:normal;fill:#ffffff;fill-opacity:1;font-family:Celestia Redux Alternate;-inkscape-font-specification:Celestia Redux Alternate Medium">A GNU distribution for ponies, by ponies, with ponies</flowPara></flowRoot>    <g
       id="g4576">
      <g
         transform="translate(-84.631085,-329.26782)"
         id="g3028">
        <path
           style="fill:#5ca9e0;fill-opacity:1"
           d="m 427.75137,716.52496 c -11.44043,-3.00458 -23.59053,-11.27443 -27.96128,-20.51336 -5.94798,-8.13532 -1.24635,-13.9944 -6.57752,-16.08342 -0.62394,0.32204 -11.7793,1.20191 -22.43127,1.48358 -17.64971,0.46671 -19.66554,1.6916 -20.08728,0.59255 -0.17724,-5.57965 -0.36076,-10.75846 -0.46279,-18.87173 l 14.93091,-13.30448 c 23.10689,-20.58983 41.43156,-33.65546 56.78201,-37.53726 11.03913,-2.79156 23.83764,-0.71075 30.84321,5.58785 7.22196,6.49317 11.17215,15.41538 13.06392,37.30139 0.62271,7.2043 0.87146,18.48177 1.66453,23.39339 2.39527,14.83424 2.2769,21.31922 -2.21747,26.56989 -3.17065,3.70419 -7.37143,7.1948 -15.39231,9.88204 -5.19746,0.69782 -6.68828,4.15095 -22.15466,1.49956 z"
           id="path5453"
           inkscape:connector-curvature="0"
           sodipodi:nodetypes="cccsccsssssscc" />
        <path
           style="fill:#000000;fill-opacity:1;stroke:#000000;stroke-width:1px;stroke-linecap:butt;stroke-linejoin:miter;stroke-opacity:1"
           d="m 435.8125,608.875 c -31.69988,3.42031 -48.05285,19.34698 -85.5,50.5 l 0.125,4.9375 c 25.68053,-21.80897 53.13887,-52.89102 83.3125,-53.125 31.88057,2.86182 29.46782,32.02975 31.96875,58.03125 3.51223,24.36223 11.08622,39.38319 -25.28125,47.46875 -25.75094,1.50497 -45.70479,-20.83661 -42.45207,-34.32614 7.13525,-30.85217 7.60845,-33.99353 -3.57918,-2.64261 -5.80691,0.25353 -29.32858,0.99442 -43.53125,1.375 l 0.0625,1.9375 c 22.9154,-0.67335 43.55005,-1.5 43.55005,-1.5 0,0 -1.41252,7.22261 0.35256,10.16506 15.53282,25.8938 42.3361,39.1703 70.34739,14.95994 11.46904,-9.91277 1.80217,-42.25536 1.0625,-64.78125 -0.41633,-12.67884 -12.09531,-33.34415 -30.4375,-33 z"
           id="path5422"
           inkscape:connector-curvature="0"
           sodipodi:nodetypes="cccccccccccsssc" />
      </g>
      <g
         transform="translate(-84.631085,-309.26782)"
         id="g3024">
        <path
           style="fill:#5ca9e0;fill-opacity:1"
           d="m 282.75824,695.78585 -4.99785,-9.04321 0.66401,-12.76793 c -0.14956,-6.7207 0.57959,-5.60718 -3.37952,-6.62292 -0.94136,0.26434 -9.56906,1.51807 -14.33837,0.42452 l -6.96659,0.32978 0.66807,-6.09566 c 1.15906,-10.57552 9.49935,-27.14942 15.74229,-36.34255 4.21503,-6.20691 13.35881,-14.89506 18.54876,-18.42305 9.84522,-6.69251 19.5273,-9.96165 29.34887,-9.49207 5.48002,0.262 7.0542,0.66063 11.72515,2.96914 6.69647,3.30957 16.82478,10.11763 17.32798,17.62373 l 2.32971,4.91822 0.0848,18.19266 c 0.0539,11.55623 0.55062,22.70501 1.36184,30.56249 1.30353,12.62606 1.19029,18.39059 -0.48422,24.65142 -1.76145,6.58588 -11.75055,15.90151 -22.89863,18.77008 -5.25191,1.35139 -11.35706,0.79379 -16.64756,-0.48734 -6.47568,-1.09163 -12.86386,-2.24335 -28.08874,-19.16731 z"
           id="path5451"
           inkscape:connector-curvature="0"
           sodipodi:nodetypes="ccccscsssssscsssscc" />
        <path
           style="fill:#000000;fill-opacity:1;stroke:#000000;stroke-width:1px;stroke-linecap:butt;stroke-linejoin:miter;stroke-opacity:1"
           d="m 314.75,596.4375 c -11.87859,0.3049 -25.55575,6.06586 -39.3125,19.53125 -13.97577,13.67976 -21.98269,35.57175 -23.28125,53.875 26.48439,-0.70059 25.27608,-0.96511 25.27608,-0.96511 0,0 -2.29116,16.92891 -0.52608,19.87136 15.53282,25.8938 42.20746,40.58536 70.21875,16.375 11.46904,-9.91277 2.35279,-43.76883 4.34375,-66.21875 C 353.57164,615.19426 337.4273,595.85541 314.75,596.4375 z m 1.6875,1.96875 c 11.71244,0.14902 22.75475,6.76425 28.40625,17.09375 7.5971,12.30633 2.17725,27.26475 3.56469,40.9375 0.20339,14.64962 5.41927,30.29196 -0.31469,44.28125 -6.13333,7.82324 -16.08007,12.9829 -25.71875,14.4375 -18.9663,2.49615 -34.89395,-12.20642 -43.75,-27.4375 -0.69404,-7.02476 0.96584,-14.06495 2.5625,-20.96875 7.13525,-30.85217 7.09808,-31.18236 -4.08955,0.16856 -7.5766,0.33079 -15.16513,0.74263 -22.7542,0.86269 1.27461,-12.53863 6.64673,-25.2161 12.92416,-36.2701 10.20899,-17.1291 26.51343,-31.52229 46.82584,-33.0424 0.78545,-0.0483 1.56292,-0.0724 2.34375,-0.0625 z"
           id="path5413"
           inkscape:connector-curvature="0"
           sodipodi:nodetypes="ssccssssscccccsccccs" />
      </g>
    </g>
  </g>
</svg>
